<?xml version="1.0" encoding="UTF-8"?>
<svg id="katman_1" data-name="katman 1" xmlns="http://www.w3.org/2000/svg" viewBox="0 0 500 500">
  <defs>
    <style>
      .cls-1 {
        fill: #393;
      }

      .cls-2 {
        fill: #7f206d;
      }
    </style>
  </defs>
  <path class="cls-2" d="M52.29,375.7c9.94,25.38,25.53,48.62,47.18,69.57,38.1,36.49,85.09,54.73,140.95,54.73s103.49-18.24,140.95-54.73c40.04-39.39,60.06-85.73,60.06-139.02v-32.84l-4.84,2.33-92.03,43.59c0,50.06-10.09,83.8-30.27,101.24-20.19,17.44-44.8,26.16-73.87,26.16s-53.77-8.76-74.11-26.28c-13.52-11.64-27.6-29.75-32.13-50.74-41.26,6.44-73.15,6.55-81.89,6Z"/>
  <path class="cls-1" d="M467.32,0c-16.91,113.05-48.68,156.95-48.68,156.95-73.75,139.4-255.77,203.82-255.77,203.82-14.17,5.89-29.62,9.56-44.37,11.89-30.67,4.78-58.13,3.56-64.6,3.15-.99-.06-1.63-.12-1.63-.12.29-.52.64-1.11.99-1.63,15.57-27.17,38.19-55.56,63.02-82.67,59.58-65.07,131.94-122.84,152.17-138.58,3.09-2.39,5.01-3.91,5.42-4.26-1.92.76-3.91,1.46-5.83,2.21-63.02,23.44-113.75,60.63-151.76,96.49-34.46,32.59-58.54,64.02-71.71,83.02-7.93,11.49-11.89,18.42-11.89,18.42.29-42.74,5.07-77.6,11.6-105.53,15.8-66.99,41.98-94.16,41.98-94.16,31.08-42.74,72.12-71.83,108.85-91.07,48.33-25.42,89.09-33.76,89.09-33.76C360.28,5.6,467.32,0,467.32,0Z"/>
</svg>