<?xml version="1.0" encoding="UTF-8"?>
<svg id="katman_1" data-name="katman 1" xmlns="http://www.w3.org/2000/svg" viewBox="0 0 99.23 121.48">
  <defs>
    <style>
      .cls-1 {
        fill: #7f206d;
      }
    </style>
  </defs>
  <path class="cls-1" d="M66.63,0h-34.03c-6.25,0-11.32,5.07-11.32,11.32v26.62h56.67V11.32c0-6.25-5.07-11.32-11.32-11.32ZM27.86,22.78h43.51c1.05,0,1.9.85,1.9,1.9s-.85,1.9-1.9,1.9H27.86c-1.05,0-1.9-.85-1.9-1.9s.85-1.9,1.9-1.9ZM25.96,17.07c0-1.05.85-1.9,1.9-1.9h43.51c1.05,0,1.9.85,1.9,1.9s-.85,1.9-1.9,1.9H27.86c-1.05,0-1.9-.85-1.9-1.9ZM27.86,30.4h43.51c1.05,0,1.9.85,1.9,1.9s-.85,1.9-1.9,1.9H27.86c-1.05,0-1.9-.85-1.9-1.9s.85-1.9,1.9-1.9ZM71.37,11.36H27.86c-1.05,0-1.9-.85-1.9-1.9s.85-1.9,1.9-1.9h43.51c1.05,0,1.9.85,1.9,1.9s-.85,1.9-1.9,1.9Z"/>
  <path class="cls-1" d="M87.91,42.56H11.32c-6.25,0-11.32,5.07-11.32,11.32v34.03c0,6.25,5.07,11.32,11.32,11.32h9.96v-11.07h56.67v11.07h9.96c6.25,0,11.32-5.07,11.32-11.32v-34.03c0-6.25-5.07-11.32-11.32-11.32Z"/>
  <path class="cls-1" d="M32.6,121.48c-3.69,0-6.7-3-6.7-6.7v-22h47.43v22c0,3.69-3,6.7-6.7,6.7h-34.03Z"/>
</svg>