<?xml version="1.0" encoding="UTF-8"?>
<svg id="katman_1" data-name="katman 1" xmlns="http://www.w3.org/2000/svg" viewBox="0 0 127.84 122.35">
  <defs>
    <style>
      .cls-1 {
        fill: #7f206d;
      }
    </style>
  </defs>
  <path class="cls-1" d="M63.92,0C42.59,0,25.3,17.29,25.3,38.61s38.61,83.73,38.61,83.73c0,0,38.61-62.41,38.61-83.73S85.24,0,63.92,0ZM63.92,58.92c-11.22,0-20.31-9.09-20.31-20.31s9.09-20.31,20.31-20.31,20.31,9.09,20.31,20.31-9.09,20.31-20.31,20.31Z"/>
  <path class="cls-1" d="M24.26,52.81c1.22,3.73,2.77,7.76,4.54,11.93-.84.08-1.71.12-2.57.12-4.48,0-8.68-1.12-12.36-3.08-1.16-.61-2.26-1.32-3.3-2.1C4.15,54.88,0,47.23,0,38.61,0,24.13,11.75,12.38,26.23,12.38c1.36,0,2.71.1,4.01.3-5.56,7.19-8.86,16.17-8.86,25.93,0,2.89.63,6.44,1.75,10.43.33,1.22.71,2.48,1.14,3.77Z"/>
  <path class="cls-1" d="M127.84,38.61c0,8.63-4.15,16.25-10.57,21.04-1.04.79-2.14,1.49-3.3,2.12-3.69,1.96-7.9,3.08-12.38,3.08-.86,0-1.71-.04-2.55-.12,1.77-4.19,3.32-8.21,4.52-11.95.43-1.3.81-2.55,1.14-3.77,1.14-3.99,1.77-7.52,1.77-10.41,0-9.76-3.3-18.74-8.86-25.93,1.3-.2,2.63-.3,3.99-.3,14.5,0,26.25,11.75,26.25,26.23Z"/>
  <path class="cls-1" d="M40.16,88.61c-2.51,1.25-5.33,1.95-8.33,1.95-1.19,0-2.37-.12-3.5-.34-8.65-1.63-15.18-9.24-15.18-18.35,0-2.31.42-4.53,1.21-6.56,3.68,1.95,7.84,2.98,12.03,2.98.86,0,1.7-.03,2.52-.12l1.09-.1c1.9,4.27,4.02,8.67,6.21,12.97,1.3,2.56,2.62,5.1,3.94,7.57Z"/>
  <path class="cls-1" d="M46.22,99.62c-1.67,1.24-3.73,1.96-5.95,1.96-5.33,0-9.69-4.16-10.01-9.41.97.18,1.98.27,2.98.27,2.75,0,5.39-.62,7.85-1.84l.08-.04c1.79,3.28,3.51,6.37,5.05,9.06Z"/>
  <path class="cls-1" d="M114.18,71.82c0,9.04-6.47,16.57-15.05,18.21-1.13.22-2.29.33-3.49.33-2.97,0-5.76-.7-8.24-1.94,1.3-2.45,2.62-4.97,3.9-7.51,2.17-4.27,4.27-8.63,6.16-12.87l1.08.1c.83.08,1.64.12,2.49.12,4.15,0,8.28-1.02,11.96-2.95.77,2.02,1.18,4.22,1.18,6.51Z"/>
  <path class="cls-1" d="M96.88,92.25c-.32,5.2-4.64,9.33-9.93,9.33-2.21,0-4.26-.72-5.92-1.95h0c1.55-2.68,3.25-5.73,5.02-8.98l.08.04c2.44,1.21,5.05,1.83,7.77,1.83,1,0,1.97-.09,2.97-.27Z"/>
</svg>