<?xml version="1.0" encoding="UTF-8"?>
<svg id="katman_1" data-name="katman 1" xmlns="http://www.w3.org/2000/svg" viewBox="0 0 99.23 68.7">
  <defs>
    <style>
      .cls-1 {
        fill: #7f206d;
      }
    </style>
  </defs>
  <path class="cls-1" d="M89.36,0H9.87C4.42,0,0,4.42,0,9.88v48.95c0,5.45,4.42,9.88,9.87,9.88h79.48c5.46,0,9.88-4.42,9.88-9.88V9.88c0-5.45-4.42-9.88-9.88-9.88ZM91.24,11.38l-40.44,40.44c-.33.33-.75.49-1.18.49s-.86-.16-1.18-.49L8,11.38c-.65-.65-.65-1.71,0-2.36.65-.65,1.71-.65,2.36,0l39.26,39.26L88.87,9.01c.65-.65,1.71-.65,2.36,0,.65.65.65,1.71,0,2.36Z"/>
</svg>