<?xml version="1.0" encoding="UTF-8"?>
<svg id="katman_1" data-name="katman 1" xmlns="http://www.w3.org/2000/svg" viewBox="0 0 100.38 100.39">
  <defs>
    <style>
      .cls-1 {
        fill: #7f206d;
      }
    </style>
  </defs>
  <path class="cls-1" d="M55.54,25.21c-10.51-2.25-19.37,1.33-25.81,9.94-6.19,8.33-6.43,19.44-.9,28.42.45.58.49,1.1.32,1.8-.8,2.62-1.47,5.19-2.2,7.72-.13.58-.07.68.49.49,2.74-.7,5.43-1.43,8.19-2.11.55-.21.98-.09,1.56.26,4.03,2.34,8.37,3.51,13.76,3.51.69.12,2.06-.02,3.52-.3,14.27-2.32,23.81-16.35,20.45-30.48-2.36-10.31-9.01-17.07-19.38-19.25ZM65.63,58.85c-.2,3.18-2.64,4.8-5.44,5.59-.76.16-1.37.16-2.03.07-1.07.09-2.14-.12-3.17-.44-6.98-2.03-12.27-6.32-16.51-12.12-1.58-2.15-3.09-4.47-3.54-7.18-.64-3.18.35-5.99,2.75-8.16.8-.75,3.12-1.1,4.07-.63.3.28.48.54.68.84.87,2.15,1.79,4.16,2.67,6.24.13.42.11.84-.13,1.29-.47.94-1.18,1.73-1.87,2.5-.59.51-.59,1.1-.19,1.68,2.5,4.19,5.88,7.18,10.42,8.93.66.28,1.16.19,1.57-.35.78-.89,1.56-1.87,2.28-2.83.44-.61,1.04-.7,1.7-.44,1.5.7,2.97,1.4,4.4,2.06.4.19.68.35,1.03.47,1.51.75,1.51.87,1.33,2.48Z"/>
  <path class="cls-1" d="M50.17,0C22.45,0,0,22.45,0,50.17s22.45,50.22,50.17,50.22,50.21-22.46,50.21-50.22S77.89,0,50.17,0ZM56.22,79.85c-7.02,1.28-13.71.42-20.04-2.81-.36-.21-.67-.21-1.1-.07-4.93,1.22-9.83,2.48-14.78,3.81q-.78.24-.57-.61c1.26-4.7,2.57-9.52,4-14.17.07-.54.07-1.01-.28-1.5-9.8-18.03.63-40.42,20.9-44.46,1.87-.37,3.93-.54,5.84-.61,14.45.21,26.44,9.66,29.76,23.58,4,16.56-6.98,33.61-23.72,36.84Z"/>
</svg>