<?xml version="1.0" encoding="UTF-8"?>
<svg id="katman_1" data-name="katman 1" xmlns="http://www.w3.org/2000/svg" viewBox="0 0 216.7 187.67">
  <defs>
    <style>
      .cls-1 {
        fill: #f3ebf2;
      }

      .cls-2 {
        fill: #7f206d;
      }
    </style>
  </defs>
  <polygon class="cls-1" points="162.52 0 54.17 0 0 93.83 54.17 187.67 162.52 187.67 216.7 93.83 162.52 0"/>
  <g>
    <path class="cls-2" d="M100.25,54.73c-1.62,1.06-2.61,2.84-2.66,4.77,0,1.08.88,1.96,1.96,1.96s1.96-.88,1.96-1.96c0-.67.31-.98,1.25-1.76,1.62-1.06,2.61-2.84,2.66-4.77-.05-1.93-1.04-3.72-2.66-4.77-.94-.78-1.25-1.1-1.25-1.76s.25-.92,1.25-1.76c1.61-1.05,2.6-2.82,2.66-4.73,0-1.08-.88-1.96-1.96-1.96s-1.96.88-1.96,1.96c0,.63-.25.92-1.25,1.76-1.61,1.05-2.61,2.83-2.66,4.75.05,1.93,1.04,3.72,2.66,4.77.94.78,1.25,1.1,1.25,1.76s-.31.96-1.25,1.74Z"/>
    <path class="cls-2" d="M113.94,54.73c-1.62,1.06-2.61,2.84-2.66,4.77,0,1.08.88,1.96,1.96,1.96s1.96-.88,1.96-1.96c0-.67.31-.98,1.25-1.76,1.62-1.06,2.61-2.84,2.66-4.77-.05-1.93-1.04-3.72-2.66-4.77-.94-.78-1.25-1.1-1.25-1.76s.25-.92,1.25-1.76c1.61-1.05,2.6-2.82,2.66-4.73,0-1.08-.88-1.96-1.96-1.96s-1.96.88-1.96,1.96c0,.63-.25.92-1.25,1.76-1.61,1.05-2.61,2.83-2.66,4.75.05,1.93,1.04,3.72,2.66,4.77.94.78,1.25,1.1,1.25,1.76s-.31.96-1.25,1.74Z"/>
    <path class="cls-2" d="M73.54,71.68c-1.64.71-2.76,2.27-2.9,4.05,0,1.08.88,1.96,1.96,1.96s1.96-.88,1.96-1.96c.31-.29.66-.54,1.04-.74,1.64-.71,2.76-2.27,2.9-4.05-.14-1.78-1.25-3.34-2.9-4.05-.36-.2-.7-.42-1.04-.67.31-.29.66-.55,1.04-.74,1.62-.71,2.73-2.25,2.88-4.01,0-1.08-.88-1.96-1.96-1.96s-1.96.88-1.96,1.96c-.31.29-.66.55-1.04.74-1.64.71-2.76,2.27-2.9,4.05.14,1.78,1.25,3.34,2.9,4.05.36.2.7.42,1.04.67-.31.28-.65.52-1.02.7Z"/>
    <path class="cls-2" d="M137.17,83.47c-.06,1.08.77,2,1.85,2.06,1.08.06,2-.77,2.06-1.85.29-.2.6-.37.92-.53,1.66-.55,2.84-2.03,3.01-3.78-.17-1.74-1.35-3.22-3.01-3.78l-.57-.29.57-.29c1.65-.56,2.82-2.04,2.99-3.78.06-1.08-.76-2.01-1.84-2.07-1.08-.06-2.01.76-2.07,1.84-.29.2-.6.37-.92.53-1.66.55-2.84,2.03-3.01,3.78.18,1.74,1.37,3.21,3.03,3.76l.57.31-.57.31c-1.66.55-2.84,2.03-3.01,3.78Z"/>
    <path class="cls-2" d="M163.13,131.9h-4.73c.26-.77.35-1.58.27-2.39l-3.52-35.22c-.27-2.95-2.75-5.2-5.71-5.18h-14.58c-2.94,0-5.4,2.22-5.69,5.15l-.92,9.16-2.97-34.75c-.24-2.97-2.73-5.26-5.71-5.24h-22.42c-2.98-.02-5.48,2.27-5.71,5.24l-2.21,25.86-.63-7.32c-.23-2.96-2.7-5.24-5.67-5.24h-14.48c-2.98-.02-5.48,2.27-5.71,5.24l-3.68,42.38c-.06.78.04,1.57.29,2.31h-5.77c-1.08,0-1.96.88-1.96,1.96s.88,1.96,1.96,1.96h109.56c1.08,0,1.96-.88,1.96-1.96s-.88-1.96-1.96-1.96ZM63.35,131.31c-.31-.38-.45-.88-.39-1.37l3.64-42.4c.08-.94.86-1.66,1.8-1.66h14.52c.94,0,1.72.73,1.8,1.66l2.54,29.87-1.04,12.19c-.06.77.03,1.55.27,2.29h-21.74c-.53.02-1.05-.19-1.41-.59ZM103.71,131.9v-6.1h9.14v6.1h-9.14ZM116.76,131.9v-8.06c0-1.08-.88-1.96-1.96-1.96h-12.97c-1.08,0-1.96.88-1.96,1.96v8.06h-7.96c-1,0-1.81-.83-1.81-1.83,0-.04,0-.08,0-.12l5.22-60.94c.07-.94.86-1.67,1.8-1.66h22.42c.94,0,1.73.72,1.8,1.66l5.22,60.94c.08,1-.68,1.88-1.68,1.95-.04,0-.08,0-.12,0h-8.02ZM130.14,131.9c.25-.74.34-1.53.27-2.31l-.43-5.05,3.07-29.82c.09-.92.87-1.63,1.8-1.62h14.58c.93,0,1.71.7,1.8,1.62l3.52,35.22c.08,1-.68,1.88-1.68,1.95-.04,0-.08,0-.12,0h-22.81Z"/>
    <path class="cls-2" d="M147.48,138.61h-78.26c-1.08,0-1.96.88-1.96,1.96s.88,1.96,1.96,1.96h78.26c1.08,0,1.96-.88,1.96-1.96s-.88-1.96-1.96-1.96Z"/>
    <path class="cls-2" d="M132.88,145.77h-49.07c-1.08,0-1.96.88-1.96,1.96s.88,1.96,1.96,1.96h49.07c1.08,0,1.96-.88,1.96-1.96s-.88-1.96-1.96-1.96Z"/>
  </g>
</svg>