<?xml version="1.0" encoding="UTF-8"?>
<svg id="katman_1" data-name="katman 1" xmlns="http://www.w3.org/2000/svg" viewBox="0 0 216.7 187.67">
  <defs>
    <style>
      .cls-1 {
        fill: #f3ebf2;
      }

      .cls-2 {
        fill: #7f206d;
      }
    </style>
  </defs>
  <polygon class="cls-1" points="162.52 0 54.17 0 0 93.83 54.17 187.67 162.52 187.67 216.7 93.83 162.52 0"/>
  <path class="cls-2" d="M103.33,148.7c-11.93,0-22.12-3.96-30.28-11.78-4.54-4.4-7.94-9.38-10.1-14.84-.32-.68-.3-1.48.07-2.15.08-.14.16-.28.25-.42,2.95-5.13,7.35-10.91,13.08-17.16,6.62-7.23,13.96-13.98,19.98-19.19-5.46,2.58-11.18,5.81-16.79,10.18-6.43,5.01-11.58,10.63-13.79,13.04-1.09,1.19-2.18,2.43-3.24,3.67-.67.79-1.77,1.05-2.72.65-.95-.4-1.53-1.37-1.43-2.4.47-5.01,1.42-10,2.82-14.81,2.02-6.92,4.97-13.56,8.79-19.72.03-.05.06-.1.1-.15,5.61-7.71,13.33-14.18,22.94-19.21,10-5.26,18.38-7.01,18.73-7.08,15.41-3.77,36.67-4.92,37.57-4.96.71-.05,1.4.25,1.87.77.48.52.69,1.24.59,1.94-3.28,21.95-9.3,31.45-10.21,32.78-15.12,28.43-50.91,41.6-53.16,42.4-1.15.47-2.37.9-3.7,1.27,1.38,3.39,3.92,5.85,5.09,6.86,3.72,3.21,8.15,4.77,13.52,4.77s9.78-1.55,13.47-4.74c3.54-3.06,5.33-9.38,5.33-18.79,0-.91.53-1.74,1.35-2.14l19.68-9.33c.73-.35,1.59-.3,2.28.13.69.43,1.11,1.19,1.11,2v6.68c0,11.44-4.34,21.51-12.91,29.94-8.04,7.84-18.24,11.8-30.31,11.8ZM67.72,121.26c1.92,4.47,4.81,8.59,8.6,12.26,7.24,6.94,16.33,10.46,27.01,10.46s19.88-3.52,27-10.45c7.73-7.61,11.49-16.3,11.49-26.56v-2.93l-14.98,7.1c-.2,10.16-2.48,17-6.96,20.86-4.53,3.91-10.1,5.89-16.56,5.89s-12.05-1.99-16.6-5.91c-1.68-1.45-5.59-5.28-7.07-10.69-.2-.27-.35-.6-.42-.95-.23-1.25.53-2.46,1.77-2.73,2.16-.48,4.01-1.04,5.65-1.72.04-.02.08-.03.12-.04.36-.13,36.31-13.14,50.69-40.3.05-.1.11-.19.17-.28.05-.07,5.65-8.12,9.01-27.97-6.42.45-22.1,1.79-33.86,4.67-.17.04-8.19,1.73-17.57,6.66-8.94,4.68-16.09,10.65-21.26,17.74-3.57,5.78-6.34,12-8.23,18.48-.6,2.07-1.12,4.19-1.54,6.31,2.77-2.94,7.18-7.4,12.46-11.51,11.07-8.62,22.37-12.96,31.45-16.45.5-.19.92-.35,1.2-.46,1.07-.4,2.28.02,2.86,1.01.58.98.38,2.25-.49,2.99-.09.08-.52.42-1.2.94-4.15,3.23-18.63,14.79-30.63,27.89-5.27,5.76-9.34,11.04-12.12,15.72Z"/>
</svg>