<?xml version="1.0" encoding="UTF-8"?>
<svg id="katman_1" data-name="katman 1" xmlns="http://www.w3.org/2000/svg" viewBox="0 0 216.7 187.67">
  <defs>
    <style>
      .cls-1 {
        fill: #f3ebf2;
      }

      .cls-2 {
        fill: #7f206d;
      }
    </style>
  </defs>
  <polygon class="cls-1" points="162.52 0 54.17 0 0 93.83 54.17 187.67 162.52 187.67 216.7 93.83 162.52 0"/>
  <g>
    <path class="cls-2" d="M62.02,117.05c-.03-.13-.07-.27-.12-.39s-.12-.25-.19-.36c-.08-.11-.16-.22-.26-.32s-.2-.18-.32-.26c-.11-.08-.24-.14-.36-.19s-.26-.09-.39-.12c-.27-.05-.55-.05-.82,0-.13.03-.26.07-.39.12-.13.05-.25.12-.36.19-.11.08-.22.16-.32.26-.1.1-.18.2-.26.32-.08.11-.14.24-.19.36s-.09.26-.12.39-.04.27-.04.41.01.27.04.41c.03.13.07.26.12.39.05.13.12.25.19.36.08.11.16.22.26.32.1.1.2.18.32.26.11.08.23.14.36.19.13.05.26.09.39.12.14.03.27.04.41.04s.27-.01.41-.04c.13-.03.27-.07.39-.12.13-.05.25-.12.36-.19.11-.08.22-.16.32-.26.1-.1.18-.2.26-.32.08-.11.14-.23.19-.36.05-.13.09-.26.12-.39.03-.14.04-.27.04-.41s-.01-.27-.04-.41Z"/>
    <path class="cls-2" d="M134.02,141.8c-.03-.13-.07-.27-.12-.39s-.12-.25-.19-.36c-.08-.11-.16-.22-.26-.32s-.2-.18-.32-.26c-.11-.08-.23-.14-.36-.19-.13-.05-.26-.09-.39-.12-.27-.05-.55-.05-.82,0-.13.03-.27.07-.39.12-.13.05-.25.12-.36.19-.11.08-.22.16-.32.26-.1.1-.18.2-.26.32-.08.11-.14.24-.19.36s-.09.26-.12.39c-.03.13-.04.27-.04.41s.01.27.04.41c.03.13.07.26.12.39.05.13.12.25.19.36.07.11.16.22.26.32.1.1.2.18.32.26.11.08.23.14.36.19.13.05.26.09.39.12.13.03.27.04.41.04s.27-.01.41-.04c.13-.03.26-.07.39-.12.13-.05.25-.12.36-.19.12-.08.22-.16.32-.26.1-.1.18-.2.26-.32.07-.11.14-.23.19-.36.05-.13.09-.26.12-.39.03-.14.04-.27.04-.41s-.01-.27-.04-.41Z"/>
    <path class="cls-2" d="M154.7,107.91c.8-2.63,1.38-5.35,1.72-8.16.24-1.95.36-3.94.36-5.92s-.11-3.81-.33-5.68c-.06-.53-.14-1.07-.22-1.6-.12-.8-.26-1.59-.42-2.37-.11-.52-.22-1.05-.35-1.56-.12-.52-.26-1.03-.4-1.55-.12-.43-.24-.86-.38-1.29.98-1.88,1.87-3.74,2.67-5.57,5.83-13.42,5.91-23.94.24-29.61-6.46-6.46-19.26-5.39-35.17,2.9-4.54-1.38-9.29-2.09-14.07-2.09s-9.54.7-14.08,2.08c-1.87-.97-3.72-1.86-5.55-2.66-13.42-5.83-23.94-5.91-29.61-.24-6.46,6.46-5.4,19.26,2.89,35.16-1.38,4.54-2.08,9.26-2.08,14.08,0,12.94,5.04,25.1,14.19,34.24,4.32,4.32,9.32,7.73,14.76,10.12-.6.28-1.21.55-1.8.81-11.57,5.03-20.68,5.43-25,1.11-3.67-3.67-3.29-9.98-2.32-14.62.24-1.13-.49-2.23-1.62-2.47-1.13-.24-2.23.49-2.47,1.62-1.69,8.1-.5,14.48,3.45,18.43,2.8,2.8,6.78,4.2,11.7,4.2,5.06,0,11.12-1.48,17.92-4.43,1.82-.79,3.67-1.68,5.53-2.65,4.51,1.37,9.25,2.07,14.09,2.07,19.63,0,36.81-11.78,44.36-28.95.28.61.56,1.21.82,1.82,5.03,11.57,5.43,20.68,1.11,25-3.67,3.67-9.98,3.29-14.62,2.32-1.13-.23-2.23.49-2.47,1.62-.24,1.13.49,2.23,1.62,2.47,2.39.5,4.63.75,6.71.75,4.95,0,8.94-1.41,11.72-4.2,5.68-5.68,5.59-16.2-.24-29.61-.79-1.82-1.68-3.67-2.66-5.55ZM108.35,49.58c6.62,0,13.16,1.49,19.08,4.32-5.02,4.68-5.7,6.08-5.92,6.81-.39.25-1.54.53-2.32.73-.91.23-1.91.48-2.92.84-5.55-4.56-11.18-8.54-16.69-11.83,2.87-.58,5.8-.87,8.77-.87ZM137.6,89.7c1.11,1.38,2.18,2.76,3.21,4.14-1.17,1.57-2.4,3.13-3.67,4.7-.26-1.18-.28-2.13-.01-2.6,1.04-1.78.96-4.08.47-6.23ZM128.66,73.53c-2.81-2.81-5.67-5.48-8.57-8.01.04,0,.07-.02.11-.03,2.16-.54,4.6-1.14,5.27-3.44.11-.23.93-1.57,5.84-6.05.21.13.42.26.62.39.06.04.12.08.19.12.14.09.29.18.43.28.08.05.16.11.24.16.12.08.24.16.36.24.09.06.18.12.26.18.11.08.22.15.34.23.09.06.18.13.28.2.11.08.21.15.32.23.09.07.19.14.28.21.1.08.2.15.3.23.09.07.19.14.28.21.1.08.2.15.29.23.09.07.19.15.28.22.1.08.19.15.29.23.09.08.19.15.28.23.09.08.19.15.28.23.09.08.19.16.28.24.09.08.18.15.27.23.09.08.19.16.28.24.09.08.18.15.26.23.09.08.18.17.28.25.09.08.17.16.26.24.09.08.18.17.27.25.08.08.17.16.25.24.09.09.18.17.27.26.08.08.17.16.25.24.09.09.18.18.27.26.08.08.16.16.24.24.09.09.18.18.26.27.08.08.16.16.23.24.09.09.17.18.26.28.08.08.15.16.23.25.09.09.17.19.26.28.07.08.15.16.22.25.09.1.17.19.26.29.07.08.14.17.22.25.08.1.17.2.25.29.07.08.14.17.21.25.08.1.17.2.25.3.07.08.14.17.21.25.08.1.16.2.24.3.07.08.13.17.2.25.08.1.16.21.24.31.06.08.13.17.19.25.08.11.16.21.24.32.06.08.12.17.19.25.08.11.16.22.24.32.06.08.12.17.18.25.08.11.16.22.23.33.06.08.11.17.17.25.08.11.15.22.23.34.06.08.11.17.16.25.08.12.15.23.23.35.05.08.1.16.15.24.08.12.16.24.23.37.05.07.09.14.13.22.08.13.16.26.24.39.03.06.07.11.1.17.41.69.81,1.39,1.18,2.1.03.07.07.13.1.2.07.13.13.26.2.39.04.08.08.16.13.25.06.12.12.25.18.37.04.09.09.18.13.27.06.12.12.24.17.36.04.09.09.19.13.28.06.12.11.24.16.36.04.1.09.19.13.29.05.12.1.24.16.36.04.1.09.2.13.3.05.12.1.24.15.36.04.1.08.2.13.3.05.12.09.24.14.36.04.1.08.21.12.31.05.12.09.24.13.35.04.11.08.21.12.32.04.12.09.24.13.35.04.11.08.21.11.32.01.04.03.08.04.12-1.95,3.58-4.23,7.24-6.8,10.91-4.33-5.68-9.27-11.33-14.71-16.77ZM124.23,75.59c-.82-.88-2.07-1.3-3.81-1.3-.33,0-1.25-.51-2.34-1.89-1.6-2.02-2.39-4.32-2.37-5.13,0,0,0,0,0,0,3.38,2.87,6.72,5.95,9.98,9.22.63.63,1.25,1.26,1.87,1.9-.34.06-.68.12-1,.18-.41.08-.95.18-1.39.23.05-.87.03-2.15-.95-3.19ZM90.25,53.44c.12-.05.24-.1.36-.16.21-.09.41-.18.62-.27.13.83.26,1.64.37,2.35.07.46.15.94.22,1.37-1.98.06-5.36.51-8.67,4.54-.53.64-1.43.85-2.74,1.08-.91.16-1.85.33-2.66.82-1.24.74-1.83,2-1.68,3.54.35,3.55,5.43,5.14,10.35,6.68,1.41.44,2.75.86,3.6,1.23,1.02.45,1.56,1.25,2.36,2.53.94,1.51,2.11,3.39,4.68,4.25,1.11.37,1.55,1.1,2.29,2.47.7,1.3,1.57,2.92,3.5,3.83.94.45,2.08.74,3.28,1.06,1.27.33,3.63.95,3.99,1.6.04.07.02.26-.06.49h0c-.36,1.11-.78,1.16-1.79,1.31-.77.11-1.94.27-2.66,1.34-.47.69-.58,1.54-.34,2.51.13.5-.52,1.53-1.14,2.53-.76,1.22-1.62,2.6-2.02,4.29-.28,1.17-.34,2.23-.4,3.15-.12,1.97-.24,2.3-.98,2.71-3.84,2.13-4.42,7.01-3.33,10.64,1.46,4.85,1.04,6.07.67,6.36-.78.6-1.46.65-2.35.16-2.72-1.49-4.87-6.37-5.1-8.08,3.37-3.1,3.96-7.67,1.6-12.65-.28-.59-.24-1.39-.19-2.32.09-1.92.25-5.12-3.67-6.94-2.95-1.37-4.59-3.32-4.36-5.22.06-.48.33-1.43.6-2.36.89-3.04,1.89-6.48.51-8.78-.57-.95-1.48-1.58-2.61-1.82-.87-.18-1.7-1.04-2.59-1.95-1.59-1.62-3.98-4.07-7.69-2.42-1.66.74-3.19,1.88-4.42,2.8.03-.07.06-.14.09-.21.06-.14.12-.27.18-.41.08-.17.16-.35.24-.52.06-.14.13-.27.19-.41.08-.17.17-.34.25-.51.07-.14.14-.27.2-.41.09-.17.17-.33.26-.5.07-.13.14-.27.21-.4.09-.16.18-.33.27-.49.07-.13.15-.27.22-.4.09-.16.19-.32.28-.48.08-.13.15-.26.23-.39.1-.16.2-.32.3-.48.08-.13.16-.25.24-.38.1-.16.21-.32.31-.48.08-.12.16-.24.24-.37.11-.16.22-.32.33-.48.08-.12.16-.23.24-.35.12-.17.24-.33.35-.5.08-.11.15-.22.23-.32.13-.18.27-.36.41-.54.07-.09.13-.18.2-.26.2-.27.41-.53.62-.79,0-.01.02-.02.03-.04.2-.25.4-.5.61-.74.07-.09.15-.17.23-.26.14-.17.29-.33.43-.5.09-.1.18-.2.27-.3.13-.15.27-.3.4-.44.1-.11.2-.21.3-.31.13-.14.26-.28.39-.41.1-.11.21-.21.31-.32.13-.13.26-.26.39-.4.11-.11.22-.21.33-.32.13-.13.27-.26.4-.38.11-.1.22-.21.34-.31.13-.12.27-.25.4-.37.11-.1.23-.21.35-.31.14-.12.27-.24.41-.36.12-.1.24-.2.35-.3.14-.12.28-.23.42-.35.12-.1.24-.2.36-.29.14-.11.28-.23.43-.34.12-.1.24-.19.37-.28.14-.11.29-.22.44-.33.12-.09.25-.18.37-.28.15-.11.3-.22.45-.32.13-.09.25-.18.38-.27.15-.11.3-.21.46-.31.13-.09.25-.17.38-.26.16-.1.31-.21.47-.31.13-.08.25-.16.38-.24.16-.1.33-.2.49-.3.13-.08.25-.15.38-.23.17-.1.34-.2.51-.3.12-.07.25-.14.37-.22.18-.1.36-.2.54-.3.12-.06.23-.13.35-.19.2-.11.41-.21.61-.32.1-.05.2-.1.3-.15.3-.16.61-.31.92-.46.35-.17.7-.33,1.05-.49ZM62.06,47.54c4.32-4.32,13.43-3.91,25,1.11.6.26,1.21.54,1.82.82-.5.22-.99.44-1.48.68-1.73.83-3.4,1.76-5,2.77-8.12,5.15-14.51,12.57-18.4,21.43-5.76-12.36-6.52-22.23-1.93-26.82ZM93.89,135.66c-17.32-6.01-29.79-22.49-29.79-41.83,0-4.2.58-8.31,1.73-12.28,1.43.17,2.85-.88,4.44-2.08,1.13-.85,2.41-1.8,3.65-2.36.91-.4,1.33-.19,3.01,1.53,1.15,1.18,2.58,2.64,4.65,3.1.3.96-.62,4.13-.98,5.35-.35,1.19-.65,2.21-.74,3.04-.44,3.78,2.08,7.33,6.75,9.49,1.32.61,1.35,1.08,1.26,2.95-.06,1.24-.14,2.78.59,4.31,1.14,2.4,1.89,5.75-.98,8.07-1.24,1-1.36,2.85-.37,5.66.72,2.04,1.88,4.15,3.18,5.81,2.04,2.59,4.34,3.92,6.57,3.92,1.3,0,2.58-.45,3.78-1.38,3.28-2.53,1.65-7.95.78-10.86-.63-2.09-.36-4.83,1.36-5.78,2.85-1.58,3-4.09,3.12-6.11.05-.8.1-1.62.3-2.44.25-1.03.88-2.05,1.5-3.05.84-1.35,1.77-2.84,1.79-4.54,1.37-.25,3.59-.99,4.58-4.07.55-1.72.16-3-.26-3.77-1.22-2.23-4.08-2.97-6.6-3.62-.96-.25-1.96-.51-2.54-.79-.66-.31-1.02-.95-1.62-2.04-.8-1.49-1.91-3.53-4.64-4.44-1.09-.36-1.62-1.14-2.46-2.49-.88-1.41-1.97-3.17-4.24-4.15-1.05-.46-2.49-.91-4.02-1.39-1.68-.53-3.59-1.12-5.1-1.78-1.05-.45-1.64-.82-1.97-1.07.19-.04.39-.07.55-.1,1.56-.28,3.69-.66,5.23-2.55,2.45-3,4.57-3.01,6.11-3.02.99,0,2.12-.01,2.98-.93.36-.39.78-1.08.71-2.15-.03-.43-.17-1.31-.46-3.11-.09-.57-.19-1.19-.29-1.84,5.59,3.17,11.35,7.12,17.04,11.71-.86.94-1.5,2.72-.2,6.03,1.23,3.16,4.42,7.85,8.15,7.85.26,0,.45.01.59.03,0,.09-.01.19-.02.27-.06.86-.19,2.86,1.74,3.81,1.41.69,3.04.38,4.61.09.96-.18,2.42-.46,2.89-.17.15.09.24.16.3.2,0,.06.02.13.02.18.07.65.2,1.74,1.11,3.18,1.5,2.36,2.66,6.41,1.86,7.78-1.27,2.17-.76,5.44.42,8.51-2.59,2.99-5.35,5.95-8.25,8.85-10.3,10.3-21.37,18.79-31.82,24.47ZM108.35,138.09c-3,0-5.93-.3-8.77-.87,9.68-5.78,19.7-13.7,29.07-23.07,2.55-2.55,4.98-5.14,7.3-7.76.36.58.72,1.12,1.09,1.61.77,1.02,1.14,2.19,1.5,3.32.66,2.08,1.57,4.92,5.35,5.13.06,0,.12,0,.18,0,1.06,0,2.12-.54,3.32-1.73-7.51,14.01-22.3,23.38-39.04,23.38ZM143.88,112.25c-.55-.06-.74-.29-1.36-2.21-.42-1.32-.95-2.97-2.14-4.56-.57-.76-1.09-1.6-1.54-2.45,1.57-1.88,3.08-3.76,4.52-5.66,1.94,2.77,3.72,5.54,5.31,8.27-3,5.16-4.39,6.35-4.8,6.61ZM152.58,95.15c0,.14-.01.28-.02.42-.01.3-.02.6-.04.89,0,.17-.02.33-.04.5-.02.27-.04.54-.06.81-.02.18-.04.36-.05.53-.02.2-.04.39-.06.58-.46.9-.89,1.73-1.3,2.52-1.54-2.51-3.22-5.04-5.03-7.58,2.1-2.93,4.02-5.86,5.75-8.76,0,.03.01.05.02.08.02.12.05.24.07.36.02.12.04.23.07.35.02.12.04.24.06.36.02.12.04.23.06.35.02.12.04.24.06.36.02.12.04.23.05.35.02.12.04.25.05.37.02.11.03.23.05.34.02.13.03.25.05.38.01.11.03.23.04.34.01.13.03.26.04.38.01.11.02.23.04.34.01.13.02.26.04.39.01.11.02.22.03.34.01.13.02.27.03.4,0,.11.02.22.02.33,0,.14.02.28.02.42,0,.1.01.21.02.31,0,.15.01.29.02.44,0,.1,0,.19.01.29,0,.16,0,.32.01.49,0,.08,0,.17,0,.25,0,.24,0,.49,0,.74,0,.44,0,.88-.02,1.32ZM152.69,74.39c-4.16-9.47-11.31-17.54-20.62-22.78,0,0,0,0,0,0-1.39-.78-2.81-1.49-4.26-2.12,12.36-5.76,22.24-6.52,26.82-1.93,4.32,4.32,3.91,13.43-1.11,25-.27.61-.55,1.23-.83,1.85Z"/>
  </g>
</svg>