<?xml version="1.0" encoding="UTF-8"?>
<svg id="katman_1" data-name="katman 1" xmlns="http://www.w3.org/2000/svg" viewBox="0 0 216.7 187.67">
  <defs>
    <style>
      .cls-1 {
        fill: #f3ebf2;
      }

      .cls-2 {
        fill: #7f206d;
      }
    </style>
  </defs>
  <polygon class="cls-1" points="162.52 0 54.17 0 0 93.83 54.17 187.67 162.52 187.67 216.7 93.83 162.52 0"/>
  <g>
    <path class="cls-2" d="M86.81,106.22c18.7,0,33.9-15.21,33.9-33.9s-15.19-33.92-33.9-33.92-33.9,15.21-33.9,33.9,15.21,33.92,33.9,33.92ZM86.81,41.94c16.75,0,30.36,13.61,30.36,30.36s-13.61,30.36-30.36,30.36c-16.75.02-30.36-13.61-30.36-30.36s13.61-30.36,30.36-30.36Z"/>
    <path class="cls-2" d="M158.87,84.16h-7.57c-2.71,0-4.91,2.19-4.91,4.91v55.29c0,2.71,2.19,4.91,4.91,4.91h7.57c2.71,0,4.91-2.19,4.91-4.91v-55.29c0-2.71-2.19-4.91-4.91-4.91ZM160.24,144.36c0,.75-.61,1.37-1.37,1.37h-7.57c-.75,0-1.37-.61-1.37-1.37v-55.29c0-.75.61-1.37,1.37-1.37h7.57c.75,0,1.37.61,1.37,1.37v55.29Z"/>
    <path class="cls-2" d="M127.55,99.54c-2.71,0-4.91,2.19-4.91,4.91v39.91c0,2.71,2.19,4.91,4.91,4.91h7.57c2.71,0,4.91-2.19,4.91-4.91v-39.91c0-2.71-2.19-4.91-4.91-4.91h-7.57ZM136.49,104.45v39.91c0,.75-.61,1.37-1.37,1.37h-7.57c-.75,0-1.37-.61-1.37-1.37v-39.91c0-.75.61-1.37,1.37-1.37h7.57c.75,0,1.37.61,1.37,1.37Z"/>
    <path class="cls-2" d="M103.82,111.05c-2.71,0-4.91,2.19-4.91,4.91v28.4c0,2.71,2.19,4.91,4.91,4.91h7.57c2.71,0,4.91-2.19,4.91-4.91v-28.4c0-2.71-2.19-4.91-4.91-4.91h-7.57ZM112.76,115.96v28.4c0,.75-.61,1.37-1.37,1.37h-7.57c-.75,0-1.37-.61-1.37-1.37v-28.4c0-.75.61-1.37,1.37-1.37h7.57c.75,0,1.37.61,1.37,1.37Z"/>
    <path class="cls-2" d="M80.07,122.59c-2.71,0-4.91,2.19-4.91,4.91v16.87c0,2.71,2.19,4.91,4.91,4.91h7.57c2.71,0,4.91-2.19,4.91-4.91v-16.87c0-2.71-2.19-4.91-4.91-4.91h-7.57ZM89.01,127.49v16.87c0,.75-.61,1.37-1.37,1.37h-7.57c-.75,0-1.37-.61-1.37-1.37v-16.87c0-.75.61-1.37,1.37-1.37h7.57c.75,0,1.37.61,1.37,1.37Z"/>
    <path class="cls-2" d="M96.38,73.27c-.23,9.72-5.67,13.48-12.04,13.77v-14.87l10.12-3.65v-3.07l-10.12,3.65v-2.95l10.18-3.64v-3.07l-10.18,3.64v-9.66h-4.8v11.4l-5.09,1.85v3.07l5.09-1.85v2.95l-5.09,1.85v3.07l5.09-1.85v17.12c.87.12,1.96.17,2.77.17,13.25,0,18.57-7.46,18.63-17.94h-4.57Z"/>
  </g>
</svg>